<?xml version="1.0" standalone="no"?><!DOCTYPE svg PUBLIC "-//W3C//DTD SVG 1.1//EN" "http://www.w3.org/Graphics/SVG/1.1/DTD/svg11.dtd"><svg t="1582641927864" class="icon" viewBox="0 0 1024 1024" version="1.1" xmlns="http://www.w3.org/2000/svg" p-id="11148" xmlns:xlink="http://www.w3.org/1999/xlink" width="200" height="200"><defs><style type="text/css"></style></defs><path d="M712.535467 391.722667a310.101333 310.101333 0 1 0 220.117333 90.410666A310.144 310.144 0 0 0 712.535467 391.808z m69.802666 267.392a60.416 60.416 0 0 0 14.762667 1.322666h46.933333a10.069333 10.069333 0 0 1 10.752 6.698667 20.224 20.224 0 0 1 5.376 10.709333v34.688c0 6.698667-5.376 9.344-14.762666 9.344h-81.834667a31.701333 31.701333 0 0 0-10.752 2.688 10.965333 10.965333 0 0 0-5.376 8.021334v22.613333c0 6.698667 5.376 8.021333 14.762667 6.698667h80.725333c9.386667 0 14.762667 5.333333 14.762667 12.032v30.762666c0 9.344-6.698667 14.72-18.773334 14.72h-40.277333c-6.698667 0-16.085333 1.322667-21.333333 1.322667h-12.074667c-8.064 0-12.074667 5.333333-12.074667 14.72V891.733333c0 5.333333-2.688 8.021333-10.752 8.021334h-45.610666c-12.074667 0-17.450667-5.333333-17.450667-16.042667v-49.365333c0-5.333333 0-8.021333-1.322667-9.344s-2.688-1.322667-8.064-1.322667h-83.2a17.066667 17.066667 0 0 1-18.773333-18.730667 33.109333 33.109333 0 0 0-1.322667-10.709333 27.221333 27.221333 0 0 1 0-14.72 25.130667 25.130667 0 0 1 5.376-12.032 13.952 13.952 0 0 1 10.752-5.333333h92.586667c1.322667 0 2.688-1.322667 2.688-8.021334v-26.752c0-5.333333-6.698667-8.021333-16.085333-8.021333h-89.856c-2.688 0-5.376-2.688-5.376-8.021333v-17.365334a65.194667 65.194667 0 0 0-1.322667-17.365333 12.8 12.8 0 0 1 5.376-14.72 23.424 23.424 0 0 1 18.773333-6.698667 81.408 81.408 0 0 0 25.6 0h36.224c6.698667 0 8.064-1.322667 6.698667-6.698666a195.626667 195.626667 0 0 1-16.298667-21.290667c-9.386667-12.032-18.773333-25.6-29.525333-37.418667q-20.650667-26.752-42.965333-52.138666a15.914667 15.914667 0 0 1 5.376-25.6 102.4 102.4 0 0 0 14.762666-10.709334 196.266667 196.266667 0 0 1 17.450667-12.032c9.386667-6.698667 17.450667 0 26.837333 16.042667a127.402667 127.402667 0 0 0 16.085334 20.053333c8.064 9.344 16.085333 20.053333 24.149333 30.762667a284.373333 284.373333 0 0 0 24.149333 29.397333c8.064 9.344 10.752 14.72 12.074667 16.042667a18.858667 18.858667 0 0 0 9.386667 8.021333c5.376 1.322667 9.386667 0 10.752-5.333333a157.482667 157.482667 0 0 0 10.752-17.365333c6.698667-9.344 14.762667-20.053333 24.149333-33.408 8.064-12.032 16.085333-24.064 24.149333-34.773334s12.074667-17.365333 14.762667-20.053333a141.141333 141.141333 0 0 1 10.752-12.032 23.552 23.552 0 0 1 16.085333 1.322667 179.413333 179.413333 0 0 1 16.085334 8.021333 19.029333 19.029333 0 0 1 10.752 9.344c10.752 10.709333 12.074667 18.730667 8.064 26.752a262.613333 262.613333 0 0 1-16.085334 21.333333c-9.386667 10.709333-17.450667 24.064-26.837333 36.096s-18.773333 25.6-26.837333 36.096a75.264 75.264 0 0 0-12.074667 20.053334c-8.064 9.344-6.698667 12.032-1.322667 13.354666zM385.111467 0c-212.010667 0-384 84.224-384 189.824s171.818667 189.909333 384 189.909333 384-84.224 384-189.824S597.1648 0 385.111467 0z m120.789333 429.141333a702.165333 702.165333 0 0 1-120.789333 9.344c-182.485333 0-335.488-63.018667-374.4-147.029333a98.773333 98.773333 0 0 0-9.386667 42.666667c0 105.6 171.733333 189.824 384 189.824h29.482667a342.954667 342.954667 0 0 1 91.264-94.933334z m253.610667-52.138666a101.802667 101.802667 0 0 0 10.752-44.202667 98.730667 98.730667 0 0 0-9.386667-42.666667 204.8 204.8 0 0 1-81.877333 80.213334c5.376 0 10.752-1.322667 16.085333-1.322667a470.698667 470.698667 0 0 1 64.426667 7.893333z m-374.4 187.136c-182.485333 0-335.488-62.848-374.4-147.029334a98.773333 98.773333 0 0 0-9.386667 42.666667c0 101.589333 162.389333 185.813333 367.701333 189.824a437.674667 437.674667 0 0 1 25.6-84.224 22.912 22.912 0 0 0-9.386666-1.322667z m-22.826667 125.653333C189.186133 684.458667 46.935467 624.298667 9.346133 542.762667a98.773333 98.773333 0 0 0-9.386666 42.666666c0 101.589333 163.712 185.813333 370.389333 189.824a321.749333 321.749333 0 0 1-8.064-72.192zM10.711467 665.6a98.773333 98.773333 0 0 0-9.386667 42.666667c0 105.6 171.733333 189.824 384 189.824 14.762667 0 28.202667 0 42.965333-1.322667A329.002667 329.002667 0 0 1 384.002133 813.866667C201.474133 812.714667 49.8368 750.037333 10.9248 665.6z m449.536 270.08a718.421333 718.421333 0 0 1-75.178667 2.986667C202.583467 938.666667 49.5808 875.648 10.6688 791.466667a98.773333 98.773333 0 0 0-9.386667 42.666666c0 105.6 171.733333 189.824 384 189.824a768.810667 768.810667 0 0 0 173.098667-20.053333 388.906667 388.906667 0 0 1-98.133333-68.266667z" fill="#707070" p-id="11149"></path></svg>