<?xml version="1.0" standalone="no"?><!DOCTYPE svg PUBLIC "-//W3C//DTD SVG 1.1//EN" "http://www.w3.org/Graphics/SVG/1.1/DTD/svg11.dtd"><svg t="1582551960480" class="icon" viewBox="0 0 1026 1024" version="1.1" xmlns="http://www.w3.org/2000/svg" p-id="5687" xmlns:xlink="http://www.w3.org/1999/xlink" width="200.390625" height="200"><defs><style type="text/css"></style></defs><path d="M1009.289671 682.666667h-56.888889V34.133333c0-17.066667-17.066667-34.133333-34.133333-34.133333H110.445227c-17.066667 0-34.133333 17.066667-34.133334 34.133333v637.155556h-56.888889c-5.688889 0-11.377778 5.688889-17.066666 11.377778-5.688889 11.377778 0 17.066667 5.688889 22.755555l489.244444 273.066667c11.377778 5.688889 22.755556 5.688889 34.133333 0l483.555556-261.688889c5.688889-5.688889 11.377778-11.377778 11.377778-17.066667 0-11.377778-5.688889-17.066667-17.066667-17.066666z m-125.155555 28.444444L514.356338 904.533333l-369.777778-204.8V68.266667h733.866667v642.844444z" fill="#666666" p-id="5688"></path><path d="M480.223004 369.777778H355.067449v68.266666h125.155555v68.266667H355.067449v73.955556h125.155555v85.333333h68.266667v-85.333333h125.155556V506.311111H548.489671V438.044444h125.155556V369.777778H548.489671V341.333333l142.222222-130.844444h-108.088889L514.356338 278.755556 446.089671 210.488889H338.000782L480.223004 341.333333z" fill="#666666" p-id="5689"></path></svg>