<?xml version="1.0" standalone="no"?><!DOCTYPE svg PUBLIC "-//W3C//DTD SVG 1.1//EN" "http://www.w3.org/Graphics/SVG/1.1/DTD/svg11.dtd"><svg t="1582644123651" class="icon" viewBox="0 0 1024 1024" version="1.1" xmlns="http://www.w3.org/2000/svg" p-id="1159" xmlns:xlink="http://www.w3.org/1999/xlink" width="200" height="200"><defs><style type="text/css"></style></defs><path d="M700.00200031 399.24000031a290.71999969 290.71999969 0 1 0 206.35999969 84.75999938A290.76 290.76 0 0 0 700.00200031 399.32z m65.43999938 250.68a56.64 56.64 0 0 0 13.84000031 1.23999938h43.99999969a9.43999969 9.43999969 0 0 1 10.08 6.28000031 18.96 18.96 0 0 1 5.04 10.03999969v32.52c0 6.28000031-5.04 8.76-13.83999938 8.76h-76.72000031a29.71999969 29.71999969 0 0 0-10.08 2.52 10.27999969 10.27999969 0 0 0-5.04 7.52000062v21.19999969c0 6.28000031 5.04 7.51999969 13.84000031 6.28000031h75.67999969c8.80000031 0 13.84000031 4.99999969 13.84000031 11.28v28.83999938c0 8.76-6.28000031 13.8-17.60000062 13.8h-37.75999969c-6.28000031 0-15.07999969 1.24000031-19.99999969 1.24000031h-11.32000031c-7.56 0-11.32000031 4.99999969-11.32000031 13.8V867.99999969c0 4.99999969-2.52 7.51999969-10.08 7.52000062h-42.75999938c-11.32000031 0-16.36000031-4.99999969-16.36000031-15.04000031v-46.27999969c0-4.99999969 0-7.51999969-1.24000031-8.76s-2.52-1.24000031-7.56-1.24000031h-78a16.00000031 16.00000031 0 0 1-17.59999969-17.56000031 31.03999969 31.03999969 0 0 0-1.24000031-10.03999969 25.51999969 25.51999969 0 0 1 0-13.8 23.56000031 23.56000031 0 0 1 5.04-11.28 13.08 13.08 0 0 1 10.08-4.99999969h86.80000031c1.24000031 0 2.52-1.24000031 2.52-7.52000062v-25.08c0-4.99999969-6.28000031-7.51999969-15.07999969-7.51999969h-84.24c-2.52 0-5.04-2.52-5.04-7.51999969v-16.28000062a61.12000031 61.12000031 0 0 0-1.24000031-16.27999969 12 12 0 0 1 5.04-13.8 21.96 21.96 0 0 1 17.59999969-6.28000031 76.32 76.32 0 0 0 24 0h33.96c6.28000031 0 7.56-1.24000031 6.28000031-6.27999938a183.40000031 183.40000031 0 0 1-15.28000031-19.96000031c-8.80000031-11.28-17.59999969-24-27.67999969-35.08000031q-19.36000031-25.08-40.27999969-48.87999938a14.92000031 14.92000031 0 0 1 5.04-24 96 96 0 0 0 13.83999938-10.04000062 184.00000031 184.00000031 0 0 1 16.36000031-11.28c8.80000031-6.28000031 16.36000031 0 25.15999969 15.04000031a119.44000031 119.44000031 0 0 0 15.08000062 18.79999969c7.56 8.76 15.07999969 18.79999969 22.63999969 28.84000031a266.59999969 266.59999969 0 0 0 22.63999969 27.55999969c7.56 8.76 10.08 13.8 11.32000031 15.04000031a17.68000031 17.68000031 0 0 0 8.80000031 7.51999969c5.04 1.24000031 8.80000031 0 10.08-4.99999969a147.64000031 147.64000031 0 0 0 10.08-16.27999969c6.28000031-8.76 13.84000031-18.79999969 22.63999969-31.32 7.56-11.28 15.07999969-22.56 22.63999969-32.60000062s11.32000031-16.27999969 13.84000031-18.79999969a132.31999969 132.31999969 0 0 1 10.08-11.28 22.08 22.08 0 0 1 15.07999969 1.24000031 168.19999969 168.19999969 0 0 1 15.08000062 7.51999969 17.83999969 17.83999969 0 0 1 10.08 8.76c10.08 10.03999969 11.32000031 17.56000031 7.56 25.08a246.19999969 246.19999969 0 0 1-15.08000062 19.99999969c-8.80000031 10.03999969-16.36000031 22.56-25.15999969 33.84s-17.59999969 24-25.15999969 33.84a70.56 70.56 0 0 0-11.32000031 18.80000062c-7.56 8.76-6.28000031 11.28-1.24000031 12.51999938zM393.04200031 32c-198.76000031 0-360 78.96-360 177.96s161.08000031 178.03999969 360 178.03999969 360-78.96 360-177.96S591.842 32 393.04200031 32z m113.23999969 402.31999969a658.27999969 658.27999969 0 0 1-113.23999969 8.76c-171.07999969 0-314.52-59.08000031-351-137.83999969a92.59999969 92.59999969 0 0 0-8.80000031 40.00000031c0 99 160.99999969 177.96 360 177.96h27.64000031a321.52000031 321.52000031 0 0 1 85.56-89.00000062z m237.76000031-48.87999938a95.44000031 95.44000031 0 0 0 10.08-41.44000031 92.56000031 92.56000031 0 0 0-8.80000031-40.00000031 192 192 0 0 1-76.75999969 75.20000062c5.04 0 10.08-1.24000031 15.07999969-1.24000031a441.28000031 441.28000031 0 0 1 60.40000031 7.39999969z m-351 175.44c-171.07999969 0-314.52-58.92-351-137.84000062a92.59999969 92.59999969 0 0 0-8.80000031 40.00000031c0 95.23999969 152.23999969 174.19999969 344.71999969 177.96a410.32000031 410.32000031 0 0 1 24-78.96 21.48 21.48 0 0 0-8.79999938-1.24000031z m-21.40000031 117.79999969C209.36199969 673.68000031 76.00200031 617.28000031 40.76199969 540.84000031a92.59999969 92.59999969 0 0 0-8.79999938 39.99999938c0 95.23999969 153.48 174.19999969 347.23999969 177.96a301.63999969 301.63999969 0 0 1-7.56-67.68zM42.04200031 656a92.59999969 92.59999969 0 0 0-8.80000031 40.00000031c0 99 160.99999969 177.96 360 177.96 13.84000031 0 26.44000031 0 40.27999969-1.24000031A308.44000031 308.44000031 0 0 1 392.00199969 795.00000031C220.88199969 793.92000031 78.722 735.15999969 42.242 656z m421.44 253.2a673.51999969 673.51999969 0 0 1-70.48000031 2.80000031C221.92200031 912.00000031 78.482 852.92 42.002 774.00000031a92.59999969 92.59999969 0 0 0-8.80000031 39.99999938c0 99 160.99999969 177.96 360 177.96a720.76000031 720.76000031 0 0 0 162.28000031-18.79999969 364.60000031 364.60000031 0 0 1-91.99999969-64.00000031z" p-id="1160"></path></svg>