<?xml version="1.0" standalone="no"?><!DOCTYPE svg PUBLIC "-//W3C//DTD SVG 1.1//EN" "http://www.w3.org/Graphics/SVG/1.1/DTD/svg11.dtd"><svg t="1582642543806" class="icon" viewBox="0 0 1024 1024" version="1.1" xmlns="http://www.w3.org/2000/svg" p-id="14767" xmlns:xlink="http://www.w3.org/1999/xlink" width="200" height="200"><defs><style type="text/css"></style></defs><path d="M888.175 346.878l-80.756-80.68-127.042 117.29v430.999h237.08v-576.73l-29.282 109.121z m-422.998 148.93l-72.674-46.818v365.497h237.084V430.381l-61.154 56.357c-15.558 14.485-36.146 22.49-57.345 22.49-16.32 0-32.03-4.646-45.911-13.42z m-123.455-79.455l-59.94-38.585L104.635 531.88v282.607h237.088V416.353z m-237.088 456.93h812.823v84.647H104.634v-84.647z m56.205-448.62l116.368-101.804 215.5 138.712c5.643 3.507 11.974 5.339 18.38 5.339 8.235 0 16.47-3.051 22.952-8.998l274.832-253.78 52.997 52.997 51.318-191.482-191.482 51.318 39.273 39.272L507.348 390.35 292.304 252.094c-12.733-8.007-29.282-6.939-40.643 3.051L116.152 373.65c-13.957 12.35-15.48 33.705-3.127 47.814 12.277 14.105 33.705 15.477 47.814 3.2z" fill="#707070" p-id="14768"></path></svg>